<?xml version="1.0" encoding="UTF-8" standalone="no"?>
<svg
   width="167.26494"
   height="141.96988"
   version="1.1"
   id="svg19"
   sodipodi:docname="node_gallery_logo.svg"
   inkscape:version="1.1.2 (0a00cf5339, 2022-02-04)"
   xmlns:inkscape="http://www.inkscape.org/namespaces/inkscape"
   xmlns:sodipodi="http://sodipodi.sourceforge.net/DTD/sodipodi-0.dtd"
   xmlns="http://www.w3.org/2000/svg"
   xmlns:svg="http://www.w3.org/2000/svg">
  <defs
     id="defs23" />
  <sodipodi:namedview
     id="namedview21"
     pagecolor="#ffffff"
     bordercolor="#666666"
     borderopacity="1.0"
     inkscape:pageshadow="2"
     inkscape:pageopacity="0.0"
     inkscape:pagecheckerboard="0"
     showgrid="false"
     inkscape:snap-global="false"
     inkscape:zoom="1.794621"
     inkscape:cx="88.040873"
     inkscape:cy="105.59333"
     inkscape:window-width="1366"
     inkscape:window-height="719"
     inkscape:window-x="0"
     inkscape:window-y="0"
     inkscape:window-maximized="1"
     inkscape:current-layer="svg19" />
  <style
     id="style2">

svg &gt; .whiteshape {
  fill:white;
}

line {
  stroke:white;
  stroke-width:8px;
}

#bg_rect {
  fill: rgb(80, 80, 90);
  stroke:none;
}

      </style>
  <rect
     id="rect890"
     x="60.550949"
     y="30.850214"
     width="83"
     height="88"
     rx="10"
     ry="10"
     style="fill:#21904e;fill-opacity:1" />
  <rect
     id="rect870"
     x="68.550941"
     y="38.850212"
     width="83"
     height="88"
     rx="10"
     ry="10"
     style="fill:#0191f8;fill-opacity:1" />
  <rect
     id="rect850"
     x="76.550941"
     y="46.850212"
     width="83"
     height="88"
     rx="10"
     ry="10"
     style="fill:#e30160;fill-opacity:1" />
  <rect
     id="bg_rect"
     x="84.264931"
     y="53.969872"
     width="83"
     height="88"
     rx="10"
     ry="10" />
  <circle
     class="whiteshape"
     cx="102.26492"
     cy="118.96987"
     r="12"
     id="circle5" />
  <circle
     class="whiteshape"
     cx="137.26494"
     cy="118.96987"
     r="12"
     id="circle7" />
  <circle
     class="whiteshape"
     cx="112.26492"
     cy="78.969872"
     r="12"
     id="circle9" />
  <circle
     class="whiteshape"
     cx="147.26494"
     cy="78.969872"
     r="12"
     id="circle11" />
  <line
     x1="102.26492"
     y1="118.96987"
     x2="112.26492"
     y2="78.969872"
     id="line13" />
  <line
     x1="112.26492"
     y1="78.969872"
     x2="137.26494"
     y2="118.96987"
     id="line15" />
  <line
     x1="137.26494"
     y1="118.96987"
     x2="147.26494"
     y2="78.969872"
     id="line17" />
  <circle
     style="fill:none;fill-opacity:1;stroke:#343434;stroke-width:6.33401;stroke-miterlimit:4;stroke-dasharray:none;stroke-opacity:1"
     id="path2567"
     cx="72.921448"
     cy="38.239117"
     r="35.072113" />
  <path
     style="fill:none;stroke:#343434;stroke-width:12;stroke-linecap:round;stroke-linejoin:miter;stroke-miterlimit:4;stroke-dasharray:none;stroke-opacity:1"
     d="M 46.680776,66.088226 6,106.769"
     id="path3138" />
  <path
     id="circle3418"
     style="fill:#8bfdff;fill-opacity:0.363748;stroke:#000000;stroke-width:1.05567;stroke-opacity:0.21633334"
     d="m 57.356298,20.311753 c -9.140441,8.282272 -9.836125,22.406156 -1.579263,31.576191 0.926074,1.079648 0.846149,2.702204 -0.203897,3.653662 -1.050063,0.951474 -2.672612,0.871544 -3.639663,-0.170965 -10.24182,-11.278263 -9.382842,-28.717219 1.902977,-38.943441 11.28581,-10.2262197 28.72476,-9.3672448 38.934089,1.940466 0.934557,1.07195 0.854648,2.694496 -0.195409,3.645965 -1.050047,0.951463 -2.672603,0.871541 -3.648157,-0.163264 -8.30635,-9.125195 -22.430249,-9.820873 -31.570677,-1.538614 z"
     sodipodi:nodetypes="scscscscs" />
</svg>
